<svg width="25" height="25" viewBox="0 0 25 25" fill="none" xmlns="http://www.w3.org/2000/svg">
<path d="M9.92188 4.63542C10.9674 4.63542 11.9895 4.94546 12.8589 5.52635C13.7282 6.10723 14.4058 6.93286 14.8059 7.89883C15.206 8.86481 15.3107 9.92774 15.1068 10.9532C14.9028 11.9787 14.3993 12.9206 13.66 13.66C12.9206 14.3993 11.9787 14.9028 10.9532 15.1068C9.92774 15.3107 8.86481 15.206 7.89884 14.8059C6.93286 14.4058 6.10723 13.7282 5.52635 12.8589C4.94546 11.9895 4.63542 10.9674 4.63542 9.92187C4.63701 8.52031 5.19448 7.1766 6.18554 6.18554C7.1766 5.19448 8.52031 4.63701 9.92188 4.63542ZM9.92188 3.125C8.57758 3.125 7.26348 3.52363 6.14574 4.27048C5.028 5.01733 4.15682 6.07886 3.64238 7.32082C3.12795 8.56279 2.99334 9.92941 3.2556 11.2479C3.51786 12.5663 4.1652 13.7774 5.11576 14.728C6.06632 15.6786 7.27741 16.3259 8.59587 16.5881C9.91434 16.8504 11.281 16.7158 12.5229 16.2014C13.7649 15.6869 14.8264 14.8158 15.5733 13.698C16.3201 12.5803 16.7188 11.2662 16.7188 9.92187C16.7188 8.11923 16.0027 6.39042 14.728 5.11576C13.4533 3.8411 11.7245 3.125 9.92188 3.125Z" fill="black"/>
<path d="M21.4873 21.4873C21.2391 21.7356 20.9024 21.875 20.5514 21.875C20.2003 21.875 19.8636 21.7356 19.6154 21.4873L15.5948 17.4667C15.3465 17.2185 15.2071 16.8818 15.2071 16.5307C15.2071 16.1797 15.3465 15.843 15.5948 15.5948C15.843 15.3465 16.1797 15.2071 16.5307 15.2071C16.8818 15.2071 17.2185 15.3465 17.4667 15.5948L21.4873 19.6154C21.7356 19.8636 21.875 20.2003 21.875 20.5514C21.875 20.9024 21.7356 21.2391 21.4873 21.4873Z" fill="black"/>
</svg>
